<svg id="Layer_1" data-name="Layer 1" xmlns="http://www.w3.org/2000/svg" viewBox="0 0 241.37 90"><defs><style>.cls-1{fill:#ffb800;}.cls-2{fill:#1c0040;}.cls-3{fill:#ff99d6;}.cls-4{fill:#add8d8;}.cls-5{fill:#cef0f2;}</style></defs><title>rd-woman-hci</title><path class="cls-1" d="M71.51,90a34.62,34.62,0,0,0-5.33-2.52L55,83.35A10,10,0,0,1,48.54,74V68.89a2.51,2.51,0,0,1,2.51-2.51H62.46c1.84,0,3.77-1.25,3.77-4.13,0-3.93-.47-4.47,1.23-6.11A1.46,1.46,0,0,0,67,53.57c2.11-1.08,1.7-2.31,1.07-3.14A3,3,0,0,1,67.71,47a8.1,8.1,0,0,0,3.4-2.22,1.49,1.49,0,0,0,0-1.81c-.8-1.11-3.38-3-6.18-8.64a4,4,0,0,1,0-3.25A57.1,57.1,0,0,0,75.57,43.3C91.54,57,87.38,80.9,71.51,90Z"/><path class="cls-2" d="M49,33.16a26.46,26.46,0,0,0,5.52,2c0,.06,0,.12,0,.19a2,2,0,1,0,4,.35,2.25,2.25,0,0,0,0-.26l.36-.09a2.32,2.32,0,0,0,1.59-2.21C60.22,33.19,49,33.16,49,33.16Z"/><path class="cls-1" d="M36.16,0A36.13,36.13,0,0,0,0,35.91C-.85,55.82,12.92,75.42,23,82.54c-2.13-14.3.62-26.77,5.8-35.35a9.17,9.17,0,0,1-.66-2.3c-.54-3.56,1-6.74,3.47-7.12a3.73,3.73,0,0,1,3,1,53.75,53.75,0,0,1,12-10.55H71.41A36.14,36.14,0,0,0,36.16,0Z"/><circle class="cls-3" cx="33.69" cy="50.33" r="1.62"/><path class="cls-3" d="M33.68,52.59a5,5,0,0,0-2.9.94v8a5,5,0,0,0,5.81,0v-8A5,5,0,0,0,33.68,52.59Z"/><path class="cls-2" d="M118,19.5A29,29,0,0,1,151.51,26h-6.26v3.73h12.08l0-1.89-.16-9.39-3.71.06.07,4.2a32.73,32.73,0,0,0-48.37,2.14L108,27.21A28.81,28.81,0,0,1,118,19.5Z"/><path class="cls-2" d="M144,69.91a29,29,0,0,1-33.55-6.49h6.27V59.69H104.66l0,1.89.17,9.39,3.71,0-.07-4.2a32.7,32.7,0,0,0,48.36-2.15L154,62.2A28.81,28.81,0,0,1,144,69.91Z"/><path class="cls-2" d="M147.82,41.39l-3-.38a14.35,14.35,0,0,0-1.44-3.47l1.85-2.39a1.3,1.3,0,0,0,0-1.74l-.56-.57L142.86,31l-.57-.57a1.3,1.3,0,0,0-1.74,0l-2.39,1.85a14.5,14.5,0,0,0-3.47-1.43l-.38-3a1.31,1.31,0,0,0-1.23-1.23h-4.69l0,0,0,0h0l0,0,0,0,0,0h0l0,0,0,0h0l0,0,0,0,0,0v0l0,0,0,0h0l0,0,0,0,0,0v0l0,0v0l0,0v.05l0,0v0l0,0v.48l-.38,3a14.5,14.5,0,0,0-3.47,1.43l-2.39-1.85a1.3,1.3,0,0,0-1.74,0l-.57.57-1.82,1.81-.56.57a1.3,1.3,0,0,0,0,1.74l1.85,2.39A14.35,14.35,0,0,0,117.16,41l-3,.39a1.29,1.29,0,0,0-1.23,1.22v4.17A1.3,1.3,0,0,0,114.16,48l3,.39a14.62,14.62,0,0,0,1.44,3.46l-1.85,2.4a1.3,1.3,0,0,0,0,1.74l.56.56,1.82,1.82.57.56a1.29,1.29,0,0,0,1.74,0l2.39-1.85a14.1,14.1,0,0,0,3.47,1.43l.38,3a1.31,1.31,0,0,0,1.23,1.23h4.17a1.31,1.31,0,0,0,1.23-1.23l.38-3a14.1,14.1,0,0,0,3.47-1.43L140.55,59a1.29,1.29,0,0,0,1.74,0l.57-.57,1.82-1.81.56-.56a1.3,1.3,0,0,0,0-1.74l-1.85-2.4a14.62,14.62,0,0,0,1.44-3.46l3-.39a1.3,1.3,0,0,0,1.24-1.23V42.62A1.31,1.31,0,0,0,147.82,41.39ZM131,55.3A10.6,10.6,0,1,1,141.6,44.7,10.6,10.6,0,0,1,131,55.3Z"/><path class="cls-2" d="M131,39.27a5.45,5.45,0,1,0,3.85,1.6A5.4,5.4,0,0,0,131,39.27Zm2,7.46a2.86,2.86,0,0,1-4.88-2,2.83,2.83,0,0,1,.83-2,2.86,2.86,0,0,1,4.05,0,2.89,2.89,0,0,1,0,4Z"/><polygon class="cls-4" points="224.75 8.16 224.75 23.73 240.46 23.73 224.75 8.16"/><path class="cls-5" d="M224.12,25a.63.63,0,0,1-.64-.63V7.27H184.07V82.14h57.3V25Z"/><rect class="cls-4" x="190.58" y="20.08" width="26.35" height="3.65"/><rect class="cls-4" x="190.58" y="28.67" width="44.28" height="3.65"/><rect class="cls-4" x="190.58" y="37.27" width="44.28" height="3.65"/><rect class="cls-4" x="190.58" y="45.87" width="44.28" height="3.65"/><rect class="cls-4" x="190.58" y="54.47" width="44.28" height="3.65"/><rect class="cls-4" x="190.58" y="63.07" width="44.28" height="3.65"/><rect class="cls-4" x="190.58" y="71.66" width="44.28" height="3.65"/></svg>